@startuml
skinparam classAttributeIconSize 0

package "class FactoryMethod(工厂方法模式)" #DDDDDD {
     abstract class Factory
     {
     +createProduct():Product
     }

    class ConcreteFactory
    {
    +createProduct():Product
    }

    abstract class Product
    {
    +method():void
    }

    class ConcreteProduct
    {
    +method():void
    }

    Product <|-- ConcreteProduct
    Factory <|-- ConcreteFactory
    ConcreteProduct <. ConcreteFactory
}
@enduml