@startuml
skinparam classAttributeIconSize 0

package "class Observer(观察者模式)" #DDDDDD {
    abstract class Subject
    {
    -observers:List<Observer>
    +attach(observer:Observer)
    +detach(observer:Observer)
    #notifyObservers()
    }
    note right: 抽象主题\nJDK中是Observable接口

    class ConcreteSubject
    {
    -subjectState:String
    }
    note right: 具体主题

    interface Observer
    {
    +update(subject:Subject)
    }
    note right: 抽象观察者

    class ConcreteObserver
    {
    -observerState:String
    +update(subject:Subject)
    }
    note right: 具体观察者

    Subject <|-- ConcreteSubject
    Subject "1" o--> "0..*" Observer
    Observer <|.. ConcreteObserver
    note "回调目标对象\n获取目标对象的数据" as back
    ConcreteSubject <.. back
    back .. ConcreteObserver

}
@enduml