@startuml
skinparam classAttributeIconSize 0

package "class Template(模板方法模式)" #DDDDDD {
     class AbsTemplate<< (A,#FF7700) abstract>>{
     #stepOne():void
     #stepTwo():void
     #stepThree():void
     +execute():void
     }
     note right: 定义算法框架的抽象类

    class ConcreteImplA
    note right: 具体实现类A

    class ConcreteImplB
    note right: 具体实现类B

    AbsTemplate <|-- ConcreteImplA
    AbsTemplate <|-- ConcreteImplB
}
@enduml