@startuml
skinparam classAttributeIconSize 0

package "class Bridge(桥接模式)" #DDDDDD {

    abstract class Abstraction{
        #impl:Implementor
        +Abstraction()
        +operation()
    }
    note right: 抽象部分\n维护一个实现部分的对象引用\n对实现部分接口更高层次操作\n与具体业务相关

    class RefinedAbstraction{
        +RefinedAbstraction()
        +otherOperation()
    }
    note top of RefinedAbstraction:优化的抽象部分

    interface Implementor
    Implementor : +operationImpl()
    note right:实现部分

    class Client
    note right : 客户端

    ConcreteImplementorA : +operationImpl()

    ConcreteImplementorB : +operationImpl()

    Client --> Abstraction
    RefinedAbstraction --|> Abstraction
    Implementor --o Abstraction
    ConcreteImplementorA ..|> Implementor
    ConcreteImplementorB ..|> Implementor
}
@enduml